<svg xmlns="http://www.w3.org/2000/svg" version="1.1" xmlns:xlink="http://www.w3.org/1999/xlink" width="1024.000000pt" height="1024.000000pt"><svg version="1.0" xmlns="http://www.w3.org/2000/svg" width="1024.000000pt" height="1024.000000pt" viewBox="0 0 1024.000000 1024.000000" preserveAspectRatio="xMidYMid meet">

<g transform="translate(0.000000,1024.000000) scale(0.100000,-0.100000)" fill="#000000" stroke="none">
<path d="M5401 7400 c-5 -3 -11 -17 -14 -32 -10 -38 2 -43 115 -48 10 -1 20
-6 23 -11 4 -5 11 -7 16 -4 5 4 9 1 9 -5 0 -7 7 -10 15 -6 8 3 15 1 15 -5 0
-6 5 -7 10 -4 6 3 10 1 10 -5 0 -6 5 -8 10 -5 6 3 10 1 10 -5 0 -6 5 -8 10 -5
6 3 10 1 10 -4 0 -6 5 -11 12 -11 14 0 83 -71 80 -83 -1 -4 5 -10 13 -13 8 -3
12 -10 9 -15 -3 -5 0 -9 6 -9 6 0 8 -4 5 -10 -3 -5 -1 -10 5 -10 7 0 9 -8 5
-20 -4 -11 -2 -20 4 -20 12 0 12 -68 -1 -76 -4 -3 -6 -10 -2 -15 3 -5 0 -16
-6 -24 -7 -8 -9 -15 -5 -15 4 0 2 -7 -5 -15 -7 -8 -9 -15 -5 -15 4 0 2 -6 -4
-13 -6 -8 -8 -17 -4 -20 3 -4 1 -7 -6 -7 -7 0 -10 -4 -7 -9 5 -8 -10 -63 -31
-111 -3 -8 -8 -24 -10 -35 -2 -10 -8 -22 -13 -25 -5 -3 -12 -17 -14 -30 -2
-14 -5 -26 -7 -27 -1 -2 -3 -7 -4 -13 -1 -5 -4 -13 -5 -17 -1 -5 -2 -11 -1
-15 0 -5 -4 -8 -9 -8 -6 0 -10 -11 -10 -24 0 -14 -5 -28 -10 -31 -6 -4 -8 -11
-5 -16 4 -5 1 -9 -5 -9 -7 0 -10 -6 -8 -12 3 -7 -2 -19 -9 -27 -8 -7 -12 -20
-9 -27 3 -7 1 -16 -5 -19 -5 -4 -7 -11 -4 -16 4 -5 1 -9 -5 -9 -7 0 -10 -7 -6
-15 3 -8 1 -15 -5 -15 -6 0 -8 -4 -4 -9 3 -5 1 -12 -5 -16 -6 -4 -8 -11 -5
-16 4 -5 3 -9 -2 -9 -4 0 -9 -12 -10 -26 0 -15 -6 -30 -13 -34 -6 -4 -11 -10
-11 -14 1 -3 1 -7 0 -8 0 -2 -3 -14 -5 -28 -2 -13 -9 -27 -14 -30 -5 -3 -14
-29 -20 -58 -7 -29 -16 -52 -21 -52 -4 0 -6 -6 -3 -14 3 -7 -1 -20 -8 -27 -8
-8 -14 -25 -15 -38 -1 -13 -6 -27 -10 -30 -4 -3 -10 -15 -11 -26 -2 -11 -9
-23 -14 -26 -6 -4 -7 -12 -4 -18 4 -6 2 -11 -4 -11 -7 0 -10 -6 -7 -14 3 -8 2
-16 -3 -18 -5 -2 -12 -19 -15 -38 -3 -19 -10 -36 -15 -38 -5 -2 -6 -10 -3 -18
3 -8 0 -14 -7 -14 -6 0 -9 -4 -5 -9 3 -5 1 -12 -5 -16 -6 -4 -8 -11 -5 -16 4
-5 1 -9 -5 -9 -7 0 -10 -7 -6 -15 3 -8 2 -15 -3 -15 -5 0 -8 -6 -8 -12 2 -21
-36 -128 -45 -128 -5 0 -6 -4 -3 -10 3 -5 1 -10 -5 -10 -6 0 -8 -5 -5 -10 4
-6 1 -17 -5 -25 -7 -8 -9 -15 -5 -15 4 0 2 -6 -4 -13 -6 -8 -8 -17 -4 -20 3
-4 1 -7 -5 -7 -6 0 -9 -7 -5 -17 5 -12 3 -14 -7 -8 -10 6 -12 4 -7 -7 3 -9 3
-19 -1 -22 -3 -4 -7 -17 -9 -29 -2 -12 -8 -23 -13 -25 -5 -2 -6 -10 -3 -18 3
-8 1 -14 -5 -14 -8 0 -16 -21 -29 -84 -2 -11 -10 -27 -18 -36 -8 -9 -12 -20
-9 -23 4 -4 1 -13 -6 -22 -7 -8 -9 -15 -4 -15 5 0 3 -4 -3 -8 -7 -4 -15 -19
-17 -32 -2 -14 -5 -26 -7 -27 -1 -2 -2 -6 -3 -10 -1 -5 -7 -18 -14 -31 -7 -12
-10 -27 -7 -32 3 -6 2 -10 -2 -10 -5 0 -9 -10 -10 -22 -1 -11 -7 -24 -14 -28
-6 -4 -8 -13 -5 -19 4 -6 2 -11 -3 -11 -6 0 -10 -3 -10 -7 4 -28 -3 -44 -18
-41 -9 2 -15 7 -12 11 2 5 -4 13 -13 18 -9 5 -15 16 -12 23 3 8 -4 20 -15 28
-12 8 -18 18 -14 21 3 4 1 7 -6 7 -7 0 -10 4 -7 8 3 5 -4 16 -15 25 -11 10
-17 22 -14 27 3 6 1 10 -5 10 -6 0 -9 4 -5 10 3 5 -3 18 -14 29 -11 11 -17 22
-13 25 3 3 0 6 -7 6 -7 0 -10 4 -6 10 3 5 -3 18 -14 29 -11 11 -17 22 -13 25
3 3 0 6 -7 6 -7 0 -9 5 -6 10 3 6 -1 13 -9 16 -9 3 -14 10 -11 14 6 10 -34 80
-46 80 -4 0 -6 6 -3 13 2 7 -6 25 -20 40 -13 14 -21 28 -18 31 3 3 0 6 -7 6
-7 0 -10 4 -6 10 3 5 -2 18 -12 28 -10 10 -19 25 -21 33 -2 8 -10 19 -18 25
-7 6 -14 18 -14 27 0 9 -8 21 -17 26 -10 6 -14 11 -9 11 6 0 1 7 -10 16 -10 8
-12 13 -4 9 8 -4 6 1 -4 9 -11 9 -16 16 -11 16 5 0 0 7 -11 16 -10 8 -13 12
-6 9 11 -6 12 -3 3 14 -7 11 -16 21 -22 21 -6 0 -8 4 -4 10 3 5 -3 18 -14 29
-11 11 -17 22 -14 25 4 3 1 6 -5 6 -7 0 -12 7 -12 15 0 8 -5 15 -11 15 -5 0
-7 5 -4 10 3 6 1 10 -5 10 -6 0 -8 5 -5 10 3 6 -1 13 -9 16 -9 3 -13 10 -10
15 3 5 0 9 -5 9 -6 0 -10 3 -10 8 4 21 -4 35 -28 59 -16 15 -21 23 -13 19 9
-5 8 -2 -2 7 -10 8 -15 17 -11 20 3 4 -2 9 -11 13 -9 3 -13 10 -10 15 3 5 0 9
-6 9 -6 0 -8 5 -5 10 3 6 -1 13 -9 16 -9 3 -16 14 -16 25 0 10 -7 22 -16 27
-9 5 -15 12 -15 15 3 21 0 27 -11 21 -7 -4 -8 -3 -4 4 4 6 -1 20 -11 30 -10
10 -19 25 -21 33 -2 8 -8 19 -15 24 -7 6 -13 17 -15 25 -2 8 -13 22 -24 31
-12 9 -18 21 -14 27 3 6 -4 18 -16 26 -12 9 -18 16 -13 16 6 0 4 4 -4 9 -8 5
-16 17 -17 27 -2 10 -13 27 -26 37 -13 10 -16 16 -8 12 8 -4 6 2 -6 12 -11 10
-21 20 -21 23 -7 26 -17 39 -26 33 -5 -3 -7 -2 -4 4 8 12 -37 78 -58 87 -9 3
-14 10 -11 15 3 5 -1 11 -9 15 -8 3 -15 11 -15 17 0 7 -8 18 -17 26 -12 9 -13
12 -3 8 8 -4 2 5 -13 19 -15 14 -24 26 -20 26 4 1 -5 12 -22 26 -16 15 -23 23
-15 18 18 -9 -19 36 -75 91 -23 22 -32 34 -20 26 11 -7 -2 8 -30 34 -27 27
-49 51 -48 55 1 4 -25 33 -58 66 -32 32 -59 54 -59 49 -1 -6 -24 15 -52 45
-27 30 -47 48 -43 40 4 -8 -7 1 -24 20 -17 19 -31 31 -31 26 0 -4 -9 2 -21 15
-11 13 -18 17 -14 9 4 -8 -3 -4 -14 10 -11 14 -21 21 -21 16 0 -6 -7 -1 -15
10 -8 10 -15 16 -15 12 0 -5 -9 1 -20 12 -11 11 -29 20 -40 20 -11 0 -20 5
-20 11 0 5 -4 8 -9 4 -5 -3 -15 0 -23 7 -7 7 -20 14 -28 16 -8 2 -18 9 -22 15
-4 7 -8 8 -8 3 0 -5 -6 -3 -13 3 -8 6 -17 8 -20 4 -4 -3 -7 -1 -7 5 0 6 -7 9
-17 5 -12 -5 -14 -3 -8 7 6 10 4 12 -8 7 -10 -4 -17 -2 -17 4 0 6 -7 9 -15 5
-8 -3 -15 -1 -15 5 0 6 -9 8 -20 4 -12 -4 -20 -2 -20 5 0 7 -8 9 -21 5 -16 -5
-19 -4 -14 5 6 10 1 11 -19 6 -16 -4 -26 -2 -26 5 0 7 -9 9 -25 5 -16 -4 -25
-2 -25 5 0 8 -12 10 -34 6 -19 -3 -37 -2 -41 1 -8 9 -48 11 -315 16 -118 3
-225 3 -238 0 -21 -4 -21 -6 -7 -20 8 -9 22 -13 30 -10 8 3 15 1 15 -5 0 -6 7
-9 15 -5 8 3 15 1 15 -5 0 -6 7 -9 15 -5 8 3 15 1 15 -5 0 -6 7 -9 15 -5 8 3
15 1 15 -5 0 -6 6 -9 12 -7 7 3 19 -2 27 -9 7 -8 20 -12 28 -9 9 4 11 2 7 -6
-5 -7 -2 -9 9 -5 9 3 18 0 21 -8 3 -8 12 -12 19 -9 8 3 22 -2 31 -11 9 -9 16
-13 16 -9 0 4 6 0 12 -9 7 -9 20 -17 28 -19 8 -2 25 -13 39 -25 14 -12 28 -20
32 -18 4 3 9 -2 13 -10 3 -8 12 -15 20 -15 8 0 18 -5 22 -12 5 -7 2 -8 -7 -3
-8 5 -12 6 -9 3 3 -2 37 -34 76 -71 40 -36 70 -68 67 -71 -3 -3 -2 -13 2 -23
11 -26 12 -2613 1 -2613 -5 0 -6 -38 -4 -85 4 -58 2 -83 -5 -78 -7 4 -8 -11
-4 -45 4 -33 2 -52 -4 -52 -7 0 -8 -12 -4 -30 4 -18 3 -30 -4 -30 -5 0 -8 -11
-5 -25 2 -15 0 -25 -7 -25 -6 0 -9 -7 -6 -15 4 -8 2 -17 -4 -20 -5 -4 -7 -11
-4 -16 4 -5 1 -9 -5 -9 -7 0 -10 -7 -6 -15 3 -8 1 -15 -4 -15 -5 0 -7 -7 -4
-15 4 -8 1 -15 -6 -15 -6 0 -8 -5 -5 -10 3 -5 1 -10 -5 -10 -6 0 -8 -4 -5 -10
3 -5 1 -10 -5 -10 -6 0 -8 -4 -5 -10 3 -5 2 -10 -4 -10 -5 0 -20 -17 -32 -37
-26 -43 -65 -83 -73 -76 -3 3 -8 -2 -12 -11 -3 -9 -10 -13 -15 -11 -4 3 -17
-3 -28 -14 -11 -11 -22 -17 -25 -13 -3 3 -6 0 -6 -6 0 -6 -7 -9 -15 -6 -8 4
-15 1 -15 -5 0 -6 -7 -8 -15 -5 -8 4 -15 2 -15 -4 0 -6 -9 -8 -20 -5 -11 3
-20 1 -20 -4 0 -5 -13 -8 -30 -7 -16 1 -27 -2 -24 -7 3 -5 -23 -7 -61 -4 l-66
5 3 -38 3 -37 620 -2 c618 -2 621 -2 634 18 8 13 8 19 1 14 -7 -4 -11 -1 -9 6
5 39 0 42 -57 35 -39 -4 -53 -3 -49 5 5 7 -4 9 -30 5 -26 -4 -34 -3 -29 6 5 8
0 9 -14 6 -12 -4 -22 -2 -22 4 0 6 -7 8 -15 5 -8 -4 -17 -2 -20 4 -4 5 -11 7
-16 4 -5 -4 -9 -1 -9 5 0 6 -4 8 -10 5 -5 -3 -10 -1 -10 5 0 6 -4 8 -10 5 -5
-3 -10 -1 -10 5 0 6 -4 9 -9 6 -5 -3 -12 1 -15 10 -3 8 -9 13 -13 11 -5 -2
-24 15 -43 39 -19 23 -41 43 -47 43 -7 1 -12 4 -11 9 5 17 -14 52 -24 46 -7
-5 -9 -1 -5 9 3 10 2 17 -4 17 -6 0 -7 5 -4 10 3 6 2 10 -4 10 -6 0 -8 7 -5
15 4 8 1 15 -6 15 -7 0 -10 7 -6 15 3 8 -1 20 -8 27 -7 7 -11 21 -8 32 4 14 2
17 -8 11 -10 -6 -11 -2 -6 19 4 18 3 25 -3 21 -7 -4 -8 5 -4 26 4 23 3 30 -5
25 -8 -5 -10 2 -6 24 4 19 2 30 -5 30 -7 0 -9 18 -6 50 2 27 1 50 -3 50 -4 0
-6 51 -4 113 2 72 0 107 -6 98 -10 -14 -14 2416 -5 2432 3 4 11 3 19 -4 7 -6
12 -15 9 -19 -3 -4 15 -28 38 -54 24 -25 41 -46 38 -46 -3 -1 8 -12 24 -26 17
-15 24 -23 16 -18 -8 4 -2 -9 13 -29 16 -20 32 -37 37 -37 5 0 8 -3 7 -7 -3
-15 14 -43 23 -37 5 3 9 -4 9 -15 0 -11 11 -28 25 -39 13 -11 22 -22 18 -25
-3 -4 2 -9 11 -13 9 -3 14 -10 11 -14 -3 -5 4 -15 15 -23 11 -7 17 -17 14 -20
-4 -4 1 -9 10 -13 9 -3 16 -12 16 -20 0 -8 5 -14 11 -14 5 0 8 -4 4 -9 -3 -6
3 -14 12 -20 10 -5 18 -18 18 -28 0 -10 6 -17 13 -15 8 1 11 -2 7 -7 -3 -6 5
-21 17 -33 13 -13 22 -26 21 -29 -1 -4 9 -19 22 -33 14 -15 25 -31 25 -37 0
-5 5 -9 11 -9 5 0 7 -5 4 -10 -3 -6 1 -13 9 -16 9 -3 13 -10 10 -15 -3 -5 2
-12 10 -15 9 -3 13 -10 10 -15 -3 -5 2 -12 10 -15 9 -3 13 -10 10 -15 -3 -5 6
-20 20 -34 14 -14 22 -25 19 -25 -4 0 2 -7 13 -16 10 -8 12 -13 4 -9 -10 4 -9
2 2 -8 10 -8 15 -16 13 -19 -3 -3 7 -18 22 -34 15 -16 26 -30 25 -31 -7 -9 0
-23 8 -18 6 3 10 -3 10 -15 0 -11 7 -23 15 -26 8 -4 12 -10 9 -15 -3 -5 2 -12
10 -15 9 -3 13 -10 10 -15 -3 -5 0 -9 6 -9 6 0 8 -5 5 -10 -3 -6 1 -13 9 -16
9 -3 13 -10 10 -15 -3 -5 2 -12 10 -15 9 -3 13 -10 10 -15 -3 -5 0 -9 6 -9 6
0 8 -5 5 -10 -3 -6 1 -13 9 -16 9 -3 13 -10 11 -15 -3 -4 2 -17 12 -27 10 -10
19 -25 21 -33 2 -8 10 -19 17 -25 8 -6 12 -14 8 -17 -3 -4 -1 -7 6 -7 7 0 10
-4 6 -10 -3 -5 3 -18 15 -30 11 -11 17 -20 13 -20 -4 0 2 -7 13 -16 10 -8 13
-12 6 -9 -11 6 -12 3 -2 -14 6 -12 18 -25 26 -28 7 -3 11 -9 8 -14 -3 -5 0 -9
6 -9 6 0 9 -4 5 -9 -3 -6 3 -14 12 -20 10 -6 15 -11 10 -11 -11 0 22 -60 34
-60 6 0 8 -4 4 -10 -3 -5 3 -18 14 -29 11 -11 17 -22 13 -25 -3 -3 0 -6 7 -6
7 0 10 -4 7 -8 -3 -5 2 -18 12 -28 9 -11 18 -26 20 -34 2 -8 10 -20 17 -26 8
-6 12 -14 8 -17 -3 -4 2 -9 11 -13 9 -3 13 -10 10 -15 -3 -5 0 -9 5 -9 6 0 11
-9 11 -20 0 -11 7 -23 15 -26 8 -4 12 -10 9 -15 -3 -5 2 -12 10 -15 9 -3 13
-10 10 -15 -3 -5 0 -9 6 -9 6 0 9 -4 5 -10 -3 -5 2 -18 12 -28 10 -10 19 -25
21 -33 2 -8 10 -19 17 -25 8 -6 12 -14 8 -17 -3 -4 2 -9 11 -13 9 -3 13 -10
10 -15 -3 -5 0 -9 7 -9 7 0 9 -3 6 -7 -4 -3 1 -12 11 -20 11 -10 12 -12 2 -8
-13 6 -13 5 0 -7 8 -7 16 -20 18 -28 2 -8 8 -20 15 -25 7 -6 13 -17 15 -25 2
-8 8 -20 15 -25 7 -6 13 -17 15 -25 2 -8 10 -20 18 -27 9 -6 15 -15 15 -20 -1
-4 6 -16 14 -25 8 -10 12 -18 8 -18 -4 0 2 -7 13 -16 10 -8 12 -13 4 -9 -13 6
-13 5 0 -7 8 -7 16 -20 18 -28 2 -8 8 -20 15 -25 7 -6 13 -17 15 -25 2 -8 10
-20 17 -26 8 -6 12 -14 8 -17 -3 -4 -1 -7 6 -7 7 0 9 -5 6 -10 -3 -6 1 -13 9
-16 9 -3 13 -10 10 -15 -3 -5 2 -12 10 -15 9 -3 13 -10 10 -15 -3 -5 0 -9 6
-9 6 0 9 -4 5 -10 -3 -5 2 -18 12 -28 10 -10 19 -25 21 -33 2 -8 11 -21 22
-30 11 -9 16 -19 13 -23 -4 -3 -1 -6 6 -6 7 0 9 -5 6 -10 -3 -6 1 -13 9 -16 9
-3 13 -10 10 -15 -3 -5 2 -12 10 -15 9 -3 14 -10 11 -14 -3 -5 1 -12 9 -17 14
-8 16 -12 16 -32 0 -5 15 -24 33 -42 17 -18 25 -29 17 -25 -8 4 -6 0 4 -8 11
-9 16 -16 10 -16 -5 0 -2 -6 6 -13 9 -7 22 -27 29 -45 8 -18 18 -35 24 -39 6
-4 7 -1 2 8 -5 8 -4 10 0 6 5 -4 10 -14 11 -22 3 -20 43 -75 55 -75 6 0 7 -5
4 -10 -3 -6 1 -13 9 -16 9 -3 13 -10 10 -15 -3 -5 2 -12 10 -15 9 -3 14 -10
11 -14 -3 -5 3 -13 12 -19 10 -6 14 -11 8 -11 -5 0 1 -10 15 -21 14 -11 18
-18 10 -14 -8 4 -5 -3 8 -14 13 -11 23 -24 23 -28 0 -17 44 -71 53 -66 5 3 6
1 2 -5 -4 -6 12 -30 35 -53 23 -23 36 -38 29 -34 -7 5 -5 -3 6 -17 10 -14 22
-24 27 -21 4 2 10 -4 13 -14 4 -10 27 -38 53 -62 25 -24 37 -37 26 -30 -11 7
13 -22 54 -64 41 -42 78 -74 82 -72 4 3 22 -14 42 -38 19 -23 47 -49 63 -57
16 -8 32 -20 37 -27 12 -18 72 -59 63 -42 -5 7 2 1 15 -14 13 -15 32 -29 41
-31 10 -1 24 -10 30 -19 7 -9 19 -17 27 -19 8 -2 23 -11 33 -21 10 -10 23 -15
28 -12 6 4 10 1 10 -5 0 -6 5 -8 10 -5 6 3 10 2 10 -4 0 -13 55 -42 64 -34 3
4 6 1 6 -6 0 -7 5 -9 10 -6 6 3 10 1 10 -6 0 -7 3 -10 6 -6 4 3 13 -1 21 -9 8
-8 18 -12 23 -9 5 3 11 1 15 -5 4 -6 11 -8 16 -5 5 4 9 1 9 -5 0 -6 5 -8 10
-5 6 3 10 1 10 -5 0 -7 7 -10 15 -6 8 3 15 1 15 -4 0 -5 7 -6 17 -3 11 5 14 3
8 -6 -6 -10 -2 -11 15 -6 16 5 20 4 15 -5 -5 -9 -1 -10 15 -5 17 5 21 4 15 -6
-6 -9 -2 -11 13 -7 12 4 24 2 27 -3 3 -4 12 -6 20 -2 8 3 15 0 15 -5 0 -6 11
-9 24 -6 14 2 28 -1 31 -6 4 -6 15 -8 26 -5 11 4 19 2 19 -5 0 -9 11 -10 36
-5 21 3 34 2 30 -3 -3 -5 14 -7 40 -4 24 2 50 0 57 -6 15 -13 307 -12 307 1 0
5 21 6 51 2 37 -5 50 -4 45 4 -6 8 4 10 35 5 30 -5 40 -4 35 4 -4 8 -2 10 7 6
8 -3 18 -1 22 5 3 6 17 8 32 5 20 -5 24 -4 18 6 -6 10 -2 11 19 6 17 -4 25 -3
22 3 -4 5 3 7 16 3 15 -4 19 -2 13 7 -5 10 -2 11 14 6 12 -4 21 -2 21 4 0 6 7
8 15 5 8 -4 15 -1 15 5 0 6 7 8 15 5 8 -4 15 -1 15 5 0 6 6 8 14 5 7 -3 20 2
29 10 8 8 17 12 21 9 3 -4 6 -1 6 5 0 16 -19 25 -33 14 -7 -5 -24 -7 -39 -5
-16 2 -28 0 -28 -4 0 -10 -329 -9 -352 1 -9 4 -22 5 -28 1 -6 -4 -17 -1 -25 5
-8 6 -19 9 -24 6 -5 -4 -13 -1 -16 5 -4 5 -13 8 -21 5 -8 -3 -14 -1 -14 5 0 6
-9 8 -21 4 -16 -5 -19 -4 -14 6 6 9 3 11 -8 6 -10 -3 -17 -2 -17 3 0 5 -7 7
-15 4 -8 -4 -15 -1 -15 6 0 7 -7 10 -15 6 -8 -3 -15 0 -15 6 0 6 -3 9 -6 5 -4
-3 -13 1 -21 9 -9 8 -22 13 -29 10 -8 -3 -14 -1 -14 5 0 6 -4 7 -10 4 -5 -3
-10 -2 -10 4 0 10 -38 27 -52 23 -5 -1 -8 3 -8 9 0 5 -4 7 -10 4 -5 -3 -10 -1
-10 5 0 6 -4 8 -10 5 -5 -3 -10 -2 -10 3 0 11 -41 40 -62 44 -7 2 -18 10 -25
18 -7 8 -13 11 -13 7 0 -4 -12 5 -26 20 -14 15 -22 21 -19 13 4 -8 -4 -2 -19
14 -14 16 -26 25 -26 21 0 -5 -30 23 -67 62 -38 38 -57 56 -43 39 19 -24 16
-22 -18 9 -42 40 -52 52 -29 39 8 -5 8 -3 -2 9 -7 9 -18 14 -24 10 -5 -3 -7
-1 -4 4 4 6 -23 41 -59 78 -36 37 -60 64 -52 60 7 -3 1 4 -14 17 -16 13 -28
28 -28 32 0 5 -8 15 -17 23 -12 9 -13 12 -3 8 8 -4 2 5 -13 19 -15 14 -25 26
-22 26 3 0 1 9 -5 20 -6 11 -16 17 -22 14 -6 -4 -8 -3 -5 3 7 11 -29 65 -60
90 -10 8 -12 12 -3 8 8 -4 5 2 -7 13 -12 11 -19 22 -16 26 3 3 -2 8 -11 12 -9
3 -13 10 -10 15 3 5 -2 12 -10 15 -9 3 -13 10 -10 15 3 5 -2 12 -10 15 -9 3
-13 10 -10 15 3 5 -2 12 -10 15 -9 3 -14 10 -11 14 3 5 -2 13 -11 18 -9 5 -15
12 -15 15 3 21 0 28 -9 22 -5 -3 -10 2 -10 13 0 10 -11 31 -25 46 -14 15 -25
31 -25 37 0 5 -5 9 -12 9 -6 0 -8 3 -5 6 9 10 -34 84 -56 95 -9 6 -15 14 -12
20 4 5 1 9 -6 9 -7 0 -9 3 -6 7 4 3 -1 12 -11 20 -11 10 -12 12 -2 8 12 -5 12
-4 -1 7 -9 7 -17 18 -17 23 -1 6 -8 17 -16 27 -8 9 -12 19 -9 22 4 3 1 6 -6 6
-7 0 -10 4 -6 9 3 6 -2 14 -10 19 -14 7 -21 24 -24 55 -1 5 -6 5 -13 1 -7 -5
-8 -3 -3 6 5 8 1 18 -10 27 -11 7 -16 13 -12 13 4 0 1 14 -8 30 -9 16 -20 30
-25 30 -5 0 -7 7 -4 15 4 8 -1 17 -10 21 -9 3 -14 9 -11 14 2 4 -2 16 -10 26
-19 24 -19 51 -1 61 8 4 15 12 15 16 0 4 35 42 77 84 43 42 74 70 70 62 -4 -8
9 4 29 26 21 22 34 33 30 25 -3 -8 1 -6 10 5 9 11 20 20 26 20 5 0 14 7 19 15
5 8 10 11 10 6 0 -6 9 0 20 12 12 12 25 22 31 22 6 0 17 7 26 15 8 8 19 13 24
10 5 -4 9 -1 9 4 0 6 9 11 20 11 11 0 20 5 20 10 0 6 9 10 20 10 11 0 20 4 20
9 0 11 56 32 64 24 3 -4 6 -1 6 6 0 7 5 9 10 6 6 -3 17 1 26 9 14 15 40 21 72
17 6 -1 12 3 12 10 0 6 7 9 15 6 8 -4 17 -2 21 4 3 5 14 7 24 4 10 -3 21 -1
25 5 4 6 15 8 26 5 10 -4 24 -3 31 1 6 4 28 9 47 12 50 6 305 4 366 -2 28 -3
64 -7 80 -9 37 -4 73 -23 62 -33 -4 -4 0 -15 8 -24 8 -9 16 -25 18 -36 1 -10
6 -25 11 -32 4 -7 9 -27 12 -45 2 -17 8 -33 14 -35 6 -2 8 -8 4 -13 -3 -5 0
-9 6 -9 7 0 10 -7 6 -15 -3 -8 -1 -15 4 -15 5 0 6 -7 3 -17 -4 -11 -3 -14 5
-9 7 4 13 1 13 -8 3 -29 4 -34 11 -41 4 -4 4 -14 1 -23 -4 -10 -2 -13 5 -8 8
5 10 2 6 -8 -3 -9 -1 -16 5 -16 6 0 8 -7 5 -15 -4 -8 -2 -15 3 -15 5 0 9 -10
10 -22 1 -11 6 -24 12 -27 5 -4 13 -20 17 -36 4 -17 9 -34 13 -40 6 -10 7 -16
9 -48 1 -10 7 -15 12 -12 9 6 14 -14 11 -41 -1 -6 5 -17 13 -23 8 -7 12 -19 9
-27 -3 -8 0 -14 7 -14 6 0 9 -4 6 -9 -3 -4 1 -16 8 -27 8 -10 12 -24 9 -31 -3
-7 0 -13 7 -13 7 0 10 -7 6 -15 -3 -8 2 -21 10 -30 9 -8 12 -15 8 -15 -5 0 -3
-5 4 -12 7 -7 12 -22 12 -34 0 -12 5 -24 10 -26 6 -2 12 -13 13 -26 0 -12 5
-22 9 -22 4 0 5 -7 2 -15 -4 -8 -1 -15 6 -15 6 0 9 -4 5 -9 -3 -5 -1 -12 5
-16 6 -4 8 -11 5 -16 -4 -5 -2 -9 4 -9 6 0 8 -7 5 -15 -4 -8 -1 -15 6 -15 6 0
9 -4 6 -9 -3 -4 1 -16 8 -27 8 -10 12 -24 9 -31 -3 -7 0 -13 6 -13 7 0 9 -9 5
-25 -4 -15 -2 -25 5 -25 14 0 14 -57 0 -65 -6 -4 -8 -13 -5 -21 3 -7 -9 -28
-27 -46 -18 -17 -23 -25 -12 -18 14 9 12 6 -5 -12 -14 -14 -27 -25 -30 -25 -9
1 -65 -27 -71 -37 -4 -5 -12 -5 -18 -2 -6 4 -11 2 -11 -4 0 -7 -7 -10 -15 -7
-8 4 -17 1 -21 -4 -3 -6 -17 -8 -29 -5 -26 7 -33 -4 -27 -43 l4 -26 703 0
c387 0 707 4 711 8 27 26 6 66 -34 65 -31 0 -59 5 -68 14 -3 4 -12 4 -20 1 -8
-3 -14 1 -14 8 0 7 -3 9 -6 6 -4 -4 -19 2 -34 13 -15 11 -30 17 -34 13 -3 -3
-6 0 -6 7 0 7 -3 10 -6 7 -4 -4 -15 3 -25 15 -11 11 -19 19 -19 16 0 -4 -15 8
-32 25 -18 16 -32 34 -30 39 1 5 -5 11 -13 14 -8 4 -15 12 -15 20 0 8 -5 14
-11 14 -5 0 -7 5 -4 10 3 6 -1 13 -9 16 -9 3 -14 10 -11 14 3 4 -2 13 -10 20
-8 7 -13 16 -10 20 3 5 -2 15 -10 24 -9 8 -16 18 -15 21 0 3 -7 22 -16 43 -10
20 -16 40 -16 45 1 4 -3 7 -9 7 -5 0 -7 5 -4 10 3 6 -1 17 -10 26 -9 9 -14 23
-11 30 3 8 1 14 -5 14 -6 0 -7 5 -4 10 3 6 2 10 -4 10 -6 0 -8 7 -5 15 4 8 1
15 -7 15 -7 0 -9 3 -6 7 4 3 2 12 -4 19 -5 7 -12 25 -15 41 -3 15 -9 30 -15
31 -5 2 -9 14 -9 26 0 12 -7 31 -15 42 -8 12 -11 24 -8 28 3 3 1 6 -6 6 -7 0
-10 4 -6 9 3 5 1 12 -5 16 -6 4 -8 11 -5 16 4 5 1 9 -6 9 -7 0 -9 3 -6 6 3 4
0 16 -8 26 -7 11 -11 27 -8 34 3 8 0 14 -7 14 -6 0 -9 4 -5 9 3 5 1 12 -5 16
-6 4 -8 11 -5 16 4 5 1 9 -4 9 -6 0 -10 3 -9 8 1 4 -3 17 -10 28 -6 12 -9 24
-5 27 3 3 -2 13 -10 22 -9 8 -14 22 -11 30 4 8 1 15 -6 15 -6 0 -8 5 -5 10 3
6 1 10 -4 10 -6 0 -10 3 -9 8 4 15 -14 72 -23 72 -5 0 -8 3 -8 8 4 24 -2 52
-11 47 -6 -4 -10 5 -10 19 0 14 -5 26 -10 26 -6 0 -9 3 -8 8 1 4 -3 17 -10 28
-6 12 -9 24 -6 27 3 3 -3 20 -12 39 -10 18 -19 36 -20 41 -1 4 -3 10 -4 15 -1
4 -2 10 -1 15 0 4 -4 7 -10 7 -5 0 -8 4 -4 9 3 5 1 12 -5 16 -6 4 -8 11 -5 16
4 5 1 9 -5 9 -6 0 -8 5 -5 10 3 6 -1 17 -9 25 -8 9 -13 22 -10 30 4 8 1 15 -6
15 -6 0 -9 4 -5 9 3 5 1 12 -4 15 -5 3 -12 22 -15 41 -4 19 -11 35 -16 35 -8
0 -24 51 -20 66 1 4 -3 10 -10 14 -6 4 -12 17 -13 28 -1 12 -5 22 -10 22 -4 0
-6 4 -2 9 3 5 1 12 -5 16 -6 4 -8 11 -5 16 4 5 2 9 -4 9 -6 0 -8 7 -5 15 4 8
1 15 -5 15 -6 0 -8 7 -5 15 4 8 1 15 -6 15 -6 0 -8 5 -5 10 3 6 1 10 -5 10 -7
0 -10 6 -7 14 3 8 -1 20 -8 26 -8 7 -13 16 -10 20 3 5 1 11 -5 15 -6 4 -8 10
-5 15 3 5 1 11 -5 15 -6 4 -8 11 -5 16 4 5 2 9 -4 9 -6 0 -8 7 -5 15 4 8 1 15
-6 15 -6 0 -8 5 -5 10 3 6 2 10 -2 10 -5 0 -9 10 -10 22 -1 11 -8 25 -15 29
-7 5 -10 9 -5 9 4 0 0 11 -9 24 -8 14 -16 29 -16 33 -1 13 -9 37 -19 57 -7 12
-7 16 0 12 7 -4 8 -1 5 8 -3 9 -10 16 -16 16 -5 0 -6 5 -3 10 3 6 2 10 -4 10
-6 0 -8 7 -5 15 4 8 2 15 -3 15 -5 0 -10 10 -10 22 -1 13 -7 24 -12 26 -5 2
-7 10 -4 18 3 8 0 14 -6 14 -6 0 -11 8 -11 18 0 10 -5 23 -12 30 -7 7 -8 12
-2 12 5 0 3 4 -4 9 -7 4 -14 20 -16 34 -1 14 -8 32 -15 40 -6 8 -14 30 -16 48
-2 17 -10 36 -17 40 -7 5 -9 9 -4 9 5 0 3 6 -3 13 -6 8 -8 17 -4 20 3 4 1 7
-5 7 -6 0 -9 7 -6 15 4 8 1 15 -6 15 -7 0 -10 7 -6 15 3 8 -2 21 -10 30 -9 8
-13 15 -9 15 3 0 -1 10 -9 21 -8 12 -12 28 -9 35 3 8 1 14 -4 14 -5 0 -9 10
-10 22 -1 11 -7 24 -13 28 -6 4 -12 17 -13 28 -1 12 -5 22 -9 22 -4 0 -5 7 -2
15 4 8 1 15 -5 15 -6 0 -11 9 -11 19 0 11 -5 23 -10 26 -6 4 -8 10 -5 14 2 5
-2 16 -9 27 -8 10 -12 24 -9 31 3 7 0 13 -7 13 -6 0 -8 5 -5 10 3 6 1 10 -5
10 -6 0 -8 5 -4 11 3 6 1 14 -5 18 -6 4 -14 21 -17 37 -3 16 -10 31 -15 35 -6
3 -10 9 -10 13 1 3 1 7 0 9 0 1 -3 13 -5 27 -2 13 -8 27 -12 30 -13 9 -32 61
-27 71 4 5 2 9 -4 9 -10 0 -27 38 -23 53 1 4 -3 7 -9 7 -5 0 -7 5 -4 10 3 6 1
10 -4 10 -6 0 -11 7 -11 15 0 8 -5 15 -12 15 -6 0 -9 3 -6 6 4 3 -1 14 -10 23
-9 10 -37 41 -62 69 -25 27 -48 48 -52 46 -5 -3 -11 2 -14 10 -3 9 -10 13 -15
10 -5 -3 -9 0 -9 5 0 6 -6 11 -14 11 -7 0 -19 7 -26 15 -7 9 -19 14 -27 11 -7
-3 -13 -1 -13 4 0 5 -7 7 -15 4 -8 -4 -15 -1 -15 4 0 6 -8 11 -17 11 -10 0
-31 2 -48 5 -79 16 -605 29 -624 16z m-2666 -330 c10 -11 16 -20 13 -20 -3 0
-13 9 -23 20 -10 11 -16 20 -13 20 3 0 13 -9 23 -20z m3139 -365 c-4 -8 -1
-15 5 -15 6 0 8 -7 5 -15 -4 -8 -1 -15 5 -15 6 0 10 -3 9 -7 0 -5 2 -17 6 -28
5 -11 10 -27 14 -35 3 -8 6 -18 7 -22 2 -5 4 -11 5 -15 2 -5 4 -12 4 -18 1 -5
7 -20 14 -32 7 -13 9 -23 5 -23 -4 0 -2 -4 4 -8 7 -4 15 -19 17 -32 2 -14 5
-26 7 -27 1 -2 3 -7 4 -13 1 -5 4 -13 5 -17 1 -5 2 -11 1 -15 0 -5 3 -8 9 -8
5 0 7 -7 4 -15 -4 -8 -1 -15 5 -15 6 0 8 -7 5 -15 -4 -8 -1 -15 5 -15 6 0 8
-7 5 -15 -4 -8 -1 -15 5 -15 6 0 10 -3 10 -7 -4 -25 2 -53 11 -48 6 3 11 -1
11 -9 2 -17 5 -33 9 -41 1 -3 3 -8 4 -12 1 -5 7 -18 14 -31 7 -12 10 -27 7
-32 -3 -6 -1 -10 6 -10 7 0 9 -3 6 -6 -3 -4 -1 -16 4 -27 6 -11 12 -31 14 -44
1 -14 8 -29 14 -33 7 -4 13 -18 14 -31 0 -13 5 -27 10 -30 4 -3 9 -16 10 -27
1 -12 5 -22 9 -22 4 0 7 -3 7 -7 -1 -5 0 -11 1 -15 1 -5 3 -11 4 -15 1 -5 7
-18 14 -30 6 -12 14 -32 16 -45 3 -13 5 -24 5 -25 1 -2 0 -4 -1 -5 -1 -2 5
-14 12 -28 8 -14 15 -29 15 -35 3 -29 18 -65 28 -65 6 0 7 -3 4 -7 -4 -3 -3
-11 3 -17 5 -7 12 -27 15 -46 3 -19 10 -37 15 -40 5 -3 12 -21 15 -40 3 -19
11 -38 18 -42 7 -4 9 -8 4 -8 -4 0 -1 -12 6 -27 8 -16 12 -34 9 -42 -3 -8 0
-11 7 -7 7 5 9 1 5 -8 -3 -9 -1 -16 6 -16 6 0 9 -4 6 -9 -7 -10 -85 -13 -100
-3 -16 10 -186 9 -186 -1 0 -5 -25 -7 -56 -5 -30 2 -57 1 -60 -4 -3 -4 -16 -5
-29 -2 -12 3 -26 1 -29 -5 -4 -5 -13 -8 -21 -5 -8 3 -28 -1 -45 -10 -17 -8
-38 -12 -46 -9 -7 3 -14 0 -14 -7 0 -7 -7 -10 -15 -7 -8 4 -17 2 -20 -4 -4 -5
-11 -7 -16 -4 -5 4 -9 1 -9 -4 0 -6 -3 -10 -7 -9 -5 1 -18 -3 -29 -10 -12 -6
-24 -8 -28 -5 -3 3 -14 -1 -24 -10 -10 -9 -61 -36 -115 -61 -53 -25 -97 -50
-97 -56 0 -5 -3 -9 -8 -8 -4 2 -21 -9 -37 -24 -16 -15 -32 -25 -36 -22 -5 2
-13 -5 -19 -17 -7 -11 -14 -18 -17 -15 -3 3 -17 -7 -31 -22 -14 -15 -28 -27
-31 -27 -3 0 -25 -20 -48 -43 -47 -48 -52 -47 -26 1 9 18 18 35 19 40 1 4 3
10 4 15 1 4 2 10 1 15 0 4 4 7 9 7 6 0 10 6 9 13 -1 6 1 21 5 32 5 11 10 27
14 35 3 8 6 17 7 20 2 5 6 16 21 55 4 11 8 23 9 28 2 4 4 10 5 15 1 4 2 10 1
15 0 4 3 7 9 7 5 0 6 7 3 17 -4 11 -3 14 5 9 8 -4 10 -2 6 7 -3 8 0 18 5 22 6
3 9 11 6 16 -4 5 -2 9 4 9 6 0 7 7 4 17 -4 11 -3 14 5 9 8 -5 12 0 12 13 0 32
1 35 12 49 6 6 7 12 3 12 -4 0 0 11 9 25 9 13 18 35 20 47 3 13 5 25 6 28 2 3
2 8 1 13 0 4 4 7 11 7 6 0 8 3 5 7 -4 3 0 17 8 30 9 13 13 28 10 33 -3 6 -1
10 5 10 7 0 10 6 8 12 -3 7 2 19 9 27 8 7 12 20 9 27 -3 8 -1 14 5 14 6 0 9 6
6 14 -3 7 0 19 6 25 6 6 7 11 1 11 -5 0 -3 4 4 9 7 4 14 18 15 29 1 12 5 22
10 22 4 0 6 4 2 9 -6 10 14 62 28 72 4 3 7 10 6 15 -4 22 2 44 17 59 9 9 14
19 10 22 -3 3 -1 12 5 20 6 7 8 13 4 13 -4 0 0 11 9 25 9 13 18 35 20 47 3 13
5 24 5 26 1 1 1 5 2 10 1 4 6 16 12 27 6 11 10 23 9 28 -1 4 2 7 8 7 5 0 7 6
4 14 -3 8 0 17 5 21 6 3 9 11 6 16 -4 5 -2 9 4 9 6 0 8 7 5 15 -4 8 -1 15 5
15 6 0 10 3 10 8 -1 4 -1 9 1 12 1 3 3 15 6 28 2 13 11 31 20 39 8 9 13 22 10
29 -3 7 -1 16 5 19 5 4 7 11 4 16 -4 5 -1 9 5 9 6 0 8 5 5 10 -4 6 1 22 10 36
9 14 23 51 31 82 8 31 21 66 28 77 7 11 15 34 19 50 7 37 25 85 31 85 3 0 3
-7 0 -15z"></path>
</g>
</svg><style>@media (prefers-color-scheme: light) { :root { filter: none; } }
@media (prefers-color-scheme: dark) { :root { filter: none; } }
</style></svg>